<svg width="227" height="230" viewBox="0 0 227 230" fill="none" xmlns="http://www.w3.org/2000/svg">
<path d="M173.816 95.2163C174.065 90.9942 173.185 87.3022 171.539 84.2622C170.187 81.7645 169.811 78.7799 170.422 75.9131C170.465 75.7122 170.513 75.5116 170.565 75.3121L172.601 67.5876C173.756 63.2068 171.543 58.6629 167.508 57.4708C163.322 56.234 158.905 58.9688 157.714 63.4842L156.597 67.7215C155.588 71.5517 152.878 74.6698 149.363 76.0286C145.931 77.3554 142.712 79.8247 140.166 83.5951C131.335 96.6703 119.983 107.856 106.717 116.26C93.4505 124.664 78.9102 129.879 64.1069 131.776C54.8484 132.962 48.9156 140.165 47.335 148.164C45.7479 156.197 48.5489 165.034 56.781 169.39C66.778 174.682 77.9734 177.691 89.7198 177.949C120.567 178.626 149.654 160.2 164.363 130.665C169.969 119.407 173.102 107.308 173.816 95.2163Z" fill="#C4C4C4"/>
<path d="M170.422 75.9131C170.465 75.7122 170.513 75.5116 170.565 75.3121L171.633 71.2603L172.601 67.5876C173.756 63.2068 171.543 58.6629 167.508 57.4708C163.322 56.234 158.905 58.9688 157.714 63.4842L156.682 67.4014L156.597 67.7215C155.588 71.5517 152.878 74.6698 149.363 76.0286C145.931 77.3554 142.712 79.8247 140.166 83.5951C131.335 96.6703 119.983 107.856 106.717 116.26C93.4505 124.664 78.9102 129.879 64.1069 131.776C54.8484 132.962 48.9156 140.165 47.335 148.164C72.082 157.476 99.7818 154.826 123.368 140.89C146.796 127.047 163.912 103.398 170.422 75.9131Z" fill="#D6D6D3"/>
<path d="M173.262 65.6783L174.231 62.0056C175.385 57.6248 173.172 53.0809 169.138 51.8888C164.952 50.652 160.534 53.3868 159.343 57.9022L158.311 61.8194C162.865 64.4435 168.01 65.7717 173.262 65.6783Z" fill="#CCCCCC"/>
<path d="M85.0356 169.058C84.3623 171.487 78.2276 173.179 71.34 171.269C64.4525 169.36 59.4203 164.571 60.0935 162.143C60.7667 159.715 66.896 159.294 73.7835 161.204C80.6711 163.114 85.7088 166.63 85.0356 169.058Z" fill="white"/>
<path d="M140.296 92.9543C138.995 91.6772 140.306 86.9643 144.232 82.9641C148.159 78.9639 153.214 77.1912 154.515 78.4683C155.816 79.7454 153.688 84.0236 149.762 88.0238C145.835 92.024 141.597 94.2315 140.296 92.9543Z" fill="white" fill-opacity="0.85"/>
</svg>
